<?xml version="1.0" encoding="utf-8"?>
<!-- Generator: Adobe Illustrator 16.0.0, SVG Export Plug-In . SVG Version: 6.00 Build 0)  -->
<!DOCTYPE svg PUBLIC "-//W3C//DTD SVG 1.1//EN" "http://www.w3.org/Graphics/SVG/1.1/DTD/svg11.dtd">
<svg version="1.1" id="Layer_1" xmlns="http://www.w3.org/2000/svg" xmlns:xlink="http://www.w3.org/1999/xlink" x="0px" y="0px"
	 width="111.666px" height="20.333px" viewBox="0 0 111.666 20.333" enable-background="new 0 0 111.666 20.333"
	 xml:space="preserve">
<g>
	<g>
		<linearGradient id="SVGID_1_" gradientUnits="userSpaceOnUse" x1="-0.209" y1="10.4224" x2="111.2715" y2="12.8612">
			<stop  offset="0" style="stop-color:#FFCC00"/>
			<stop  offset="1" style="stop-color:#2EAE06"/>
		</linearGradient>
		<path fill="url(#SVGID_1_)" d="M1,10.677c0-3.912,2.093-6.131,6.277-6.131c1.438,0,2.511,0.235,3.548,0.6v2.565
			C9.77,7.274,8.696,7.056,7.496,7.056c-2.438,0-3.512,1.128-3.512,3.621c0,2.383,1.201,3.457,3.548,3.457
			c1.146,0,2.256-0.2,3.312-0.637v2.584c-1.019,0.345-2.111,0.546-3.548,0.546C3.202,16.626,1,14.407,1,10.677z"/>
		<linearGradient id="SVGID_2_" gradientUnits="userSpaceOnUse" x1="-0.2051" y1="10.2466" x2="111.2688" y2="12.6852">
			<stop  offset="0" style="stop-color:#FFCC00"/>
			<stop  offset="1" style="stop-color:#2EAE06"/>
		</linearGradient>
		<path fill="url(#SVGID_2_)" d="M12.331,4.727h5.859c2.766,0,4.039,1.583,4.039,4.021c0,1.583-0.855,2.82-2.238,3.402
			c0.328,0.272,0.491,0.546,0.746,1.127l1.383,3.166h-3.057l-1.31-2.984c-0.218-0.509-0.509-0.728-1.146-0.728H15.26v3.712h-2.929
			V4.727z M17.426,10.477c1.146,0,1.82-0.564,1.82-1.729s-0.564-1.765-1.692-1.765H15.26v3.493H17.426z"/>
		<linearGradient id="SVGID_3_" gradientUnits="userSpaceOnUse" x1="-0.1982" y1="9.9263" x2="111.2729" y2="12.3649">
			<stop  offset="0" style="stop-color:#FFCC00"/>
			<stop  offset="1" style="stop-color:#2EAE06"/>
		</linearGradient>
		<path fill="url(#SVGID_3_)" d="M26.375,12.132l-4.204-7.405h3.057l2.62,4.858l2.62-4.858h3.056l-4.203,7.405v4.312h-2.947V12.132z
			"/>
		<linearGradient id="SVGID_4_" gradientUnits="userSpaceOnUse" x1="-0.1924" y1="9.7612" x2="111.2725" y2="12.1997">
			<stop  offset="0" style="stop-color:#FFCC00"/>
			<stop  offset="1" style="stop-color:#2EAE06"/>
		</linearGradient>
		<path fill="url(#SVGID_4_)" d="M34.557,4.727h5.768c2.802,0,4.112,1.82,4.112,4.184c0,2.421-1.62,4.095-4.185,4.095h-2.766v3.438
			h-2.929V4.727z M39.597,10.749c1.238,0,1.856-0.746,1.856-1.855c0-1.201-0.563-1.911-1.764-1.911h-2.202v3.766H39.597z"/>
		<linearGradient id="SVGID_5_" gradientUnits="userSpaceOnUse" x1="-0.189" y1="9.4653" x2="111.2833" y2="11.904">
			<stop  offset="0" style="stop-color:#FFCC00"/>
			<stop  offset="1" style="stop-color:#2EAE06"/>
		</linearGradient>
		<path fill="url(#SVGID_5_)" d="M47.835,6.983h-3.439V4.727h9.807v2.256h-3.438v9.46h-2.929V6.983z"/>
		<linearGradient id="SVGID_6_" gradientUnits="userSpaceOnUse" x1="-0.1831" y1="9.2734" x2="111.2859" y2="11.712">
			<stop  offset="0" style="stop-color:#FFCC00"/>
			<stop  offset="1" style="stop-color:#2EAE06"/>
		</linearGradient>
		<path fill="url(#SVGID_6_)" d="M53.963,10.64c0-4.33,2.02-6.095,5.841-6.095c3.802,0,5.84,1.765,5.84,6.095
			c0,4.111-2.038,5.986-5.84,5.986C55.983,16.626,53.963,14.751,53.963,10.64z M62.642,10.64c0-2.62-0.873-3.584-2.838-3.584
			c-1.983,0-2.856,0.964-2.856,3.584c0,2.401,0.873,3.493,2.856,3.493C61.769,14.133,62.642,13.042,62.642,10.64z"/>
		<linearGradient id="SVGID_7_" gradientUnits="userSpaceOnUse" x1="-0.1802" y1="8.9941" x2="111.2946" y2="11.4328">
			<stop  offset="0" style="stop-color:#FFCC00"/>
			<stop  offset="1" style="stop-color:#2EAE06"/>
		</linearGradient>
		<path fill="url(#SVGID_7_)" d="M66.313,10.677c0-3.912,2.093-6.131,6.277-6.131c1.438,0,2.511,0.235,3.548,0.6v2.565
			c-1.055-0.437-2.128-0.655-3.329-0.655c-2.438,0-3.512,1.128-3.512,3.621c0,2.383,1.201,3.457,3.548,3.457
			c1.146,0,2.256-0.2,3.311-0.637v2.584c-1.019,0.345-2.11,0.546-3.548,0.546C68.515,16.626,66.313,14.407,66.313,10.677z"/>
		<linearGradient id="SVGID_8_" gradientUnits="userSpaceOnUse" x1="-0.1763" y1="8.8174" x2="111.2977" y2="11.256">
			<stop  offset="0" style="stop-color:#FFCC00"/>
			<stop  offset="1" style="stop-color:#2EAE06"/>
		</linearGradient>
		<path fill="url(#SVGID_8_)" d="M81.302,4.727h3.166l4.476,11.717h-3.057l-1.056-2.657h-3.912l-1.037,2.657h-3.057L81.302,4.727z
			 M84.431,11.623l-1.565-4.076l-1.547,4.076H84.431z"/>
		<linearGradient id="SVGID_9_" gradientUnits="userSpaceOnUse" x1="-0.1694" y1="8.5337" x2="111.3031" y2="10.9723">
			<stop  offset="0" style="stop-color:#FFCC00"/>
			<stop  offset="1" style="stop-color:#2EAE06"/>
		</linearGradient>
		<path fill="url(#SVGID_9_)" d="M89.43,15.953V13.46c1.074,0.473,2.457,0.783,3.621,0.783c1.455,0,2.165-0.164,2.165-1.074
			c0-0.909-0.71-1.127-2.729-1.71c-2.401-0.709-3.239-1.602-3.239-3.457c0-2.238,1.62-3.457,4.749-3.457
			c1.346,0,2.748,0.235,3.548,0.509v2.511c-1.055-0.419-2.128-0.6-3.111-0.6c-1.31,0-2.201,0.145-2.201,1.019
			c0,0.764,0.564,0.964,2.438,1.455c2.875,0.783,3.548,1.984,3.548,3.73c0,2.075-1.583,3.458-4.876,3.458
			C91.795,16.626,90.395,16.39,89.43,15.953z"/>
		<linearGradient id="SVGID_10_" gradientUnits="userSpaceOnUse" x1="-0.1621" y1="8.2866" x2="111.3075" y2="10.7252">
			<stop  offset="0" style="stop-color:#FFCC00"/>
			<stop  offset="1" style="stop-color:#2EAE06"/>
		</linearGradient>
		<path fill="url(#SVGID_10_)" d="M99.706,4.727h2.929v4.639h4.585V4.727h2.93v11.717h-2.93v-4.64h-4.585v4.64h-2.929V4.727z"/>
	</g>
</g>
</svg>
