<?xml version="1.0" encoding="utf-8"?>
<!-- Generator: Adobe Illustrator 16.0.0, SVG Export Plug-In . SVG Version: 6.00 Build 0)  -->
<!DOCTYPE svg PUBLIC "-//W3C//DTD SVG 1.1//EN" "http://www.w3.org/Graphics/SVG/1.1/DTD/svg11.dtd">
<svg version="1.1" id="Layer_1" xmlns="http://www.w3.org/2000/svg" xmlns:xlink="http://www.w3.org/1999/xlink" x="0px" y="0px"
	 width="474.796px" height="214.774px" viewBox="0 0 474.796 214.774" enable-background="new 0 0 474.796 214.774"
	 xml:space="preserve">
<path fill="#00A8FF" d="M93.09,193.41v-42.551H14.028v-27.178l67.532-108.71h51.061v104.593h21.413v31.295h-21.413v42.551H93.09z
	 M93.09,119.564V80.033c0-10.707,0.549-21.688,1.373-33.217h-1.098C87.6,58.346,82.933,68.778,76.894,80.033L53.01,119.015v0.55
	H93.09z"/>
<path fill="#FFFFFF" d="M303.952,103.367c0,55.179-22.236,93.063-67.807,93.063c-46.12,0-66.434-41.452-66.708-91.964
	c0-51.61,21.961-92.514,68.081-92.514C285.285,11.952,303.952,54.502,303.952,103.367z M211.438,104.466
	c-0.274,40.903,9.608,60.395,25.805,60.395s24.981-20.314,24.981-60.944c0-39.531-8.51-60.394-25.256-60.394
	C221.596,43.522,211.164,63.013,211.438,104.466z"/>
<path fill="#00A8FF" d="M398.389,193.41v-42.551h-79.062v-27.178l67.533-108.71h51.061v104.593h21.412v31.295H437.92v42.551H398.389
	z M398.389,119.564V80.033c0-10.707,0.549-21.688,1.373-33.217h-1.099c-5.765,11.53-10.432,21.962-16.472,33.217l-23.883,38.981
	v0.55H398.389z"/>
</svg>
